<mxfile host="Electron" agent="Mozilla/5.0 (X11; Linux x86_64) AppleWebKit/537.36 (KHTML, like Gecko) draw.io/26.1.1 Chrome/132.0.6834.210 Electron/34.3.3 Safari/537.36" version="26.1.1">
  <diagram name="Seite-1" id="I7Xw-049XUtACQCMJu7Q">
    <mxGraphModel dx="1182" dy="479" grid="1" gridSize="10" guides="1" tooltips="1" connect="1" arrows="1" fold="1" page="1" pageScale="1" pageWidth="827" pageHeight="1169" math="0" shadow="0">
      <root>
        <mxCell id="0" />
        <mxCell id="1" parent="0" />
        <mxCell id="I3dUeAFyoRqeHVhiFnvn-41" value="" style="rounded=0;whiteSpace=wrap;html=1;dashed=1;" parent="1" vertex="1">
          <mxGeometry x="210" y="464" width="170" height="133" as="geometry" />
        </mxCell>
        <mxCell id="74Rbqkr3RGKhppeuQ6-u-31" value="" style="rounded=0;whiteSpace=wrap;html=1;" parent="1" vertex="1">
          <mxGeometry x="225" y="535" width="149" height="55" as="geometry" />
        </mxCell>
        <mxCell id="74Rbqkr3RGKhppeuQ6-u-33" style="edgeStyle=orthogonalEdgeStyle;rounded=0;orthogonalLoop=1;jettySize=auto;html=1;exitX=1;exitY=0.5;exitDx=0;exitDy=0;entryX=0;entryY=0.5;entryDx=0;entryDy=0;endArrow=classicThin;endFill=1;" parent="1" source="74Rbqkr3RGKhppeuQ6-u-15" target="74Rbqkr3RGKhppeuQ6-u-16" edge="1">
          <mxGeometry relative="1" as="geometry" />
        </mxCell>
        <mxCell id="74Rbqkr3RGKhppeuQ6-u-15" value="Replay" style="rounded=0;whiteSpace=wrap;html=1;" parent="1" vertex="1">
          <mxGeometry x="230" y="565" width="50" height="20" as="geometry" />
        </mxCell>
        <mxCell id="74Rbqkr3RGKhppeuQ6-u-16" value="Schedule" style="rounded=0;whiteSpace=wrap;html=1;" parent="1" vertex="1">
          <mxGeometry x="300" y="565" width="67.63" height="20" as="geometry" />
        </mxCell>
        <mxCell id="74Rbqkr3RGKhppeuQ6-u-17" value="Trace Recording" style="rounded=0;whiteSpace=wrap;html=1;" parent="1" vertex="1">
          <mxGeometry x="249.5" y="540" width="100" height="20" as="geometry" />
        </mxCell>
        <mxCell id="v6EGtla5pU5QmYVnP1JU-11" style="edgeStyle=orthogonalEdgeStyle;rounded=0;orthogonalLoop=1;jettySize=auto;html=1;exitX=0.428;exitY=0.04;exitDx=0;exitDy=0;entryX=0.5;entryY=1;entryDx=0;entryDy=0;exitPerimeter=0;endArrow=classicThin;endFill=1;" parent="1" source="v6EGtla5pU5QmYVnP1JU-21" target="74Rbqkr3RGKhppeuQ6-u-16" edge="1">
          <mxGeometry relative="1" as="geometry">
            <mxPoint x="309.9999999999999" y="656" as="sourcePoint" />
          </mxGeometry>
        </mxCell>
        <mxCell id="v6EGtla5pU5QmYVnP1JU-19" value="Trace" style="text;html=1;align=center;verticalAlign=middle;whiteSpace=wrap;rounded=0;" parent="1" vertex="1">
          <mxGeometry x="429" y="500" width="36" height="16" as="geometry" />
        </mxCell>
        <mxCell id="v6EGtla5pU5QmYVnP1JU-20" value="Bug" style="text;html=1;align=center;verticalAlign=middle;whiteSpace=wrap;rounded=0;" parent="1" vertex="1">
          <mxGeometry x="500" y="645" width="40" height="15" as="geometry" />
        </mxCell>
        <mxCell id="v6EGtla5pU5QmYVnP1JU-24" style="edgeStyle=orthogonalEdgeStyle;rounded=0;orthogonalLoop=1;jettySize=auto;html=1;entryX=0.5;entryY=1;entryDx=0;entryDy=0;endArrow=classicThin;endFill=1;" parent="1" source="v6EGtla5pU5QmYVnP1JU-21" target="74Rbqkr3RGKhppeuQ6-u-15" edge="1">
          <mxGeometry relative="1" as="geometry" />
        </mxCell>
        <mxCell id="v6EGtla5pU5QmYVnP1JU-21" value="" style="image;aspect=fixed;html=1;points=[];align=center;fontSize=12;image=img/lib/azure2/general/Files.svg;spacingBottom=-6;" parent="1" vertex="1">
          <mxGeometry x="316.45" y="607" width="34.74" height="38" as="geometry" />
        </mxCell>
        <mxCell id="v6EGtla5pU5QmYVnP1JU-27" value="" style="edgeStyle=orthogonalEdgeStyle;rounded=0;orthogonalLoop=1;jettySize=auto;html=1;entryX=0;entryY=0.5;entryDx=0;entryDy=0;endArrow=classicThin;endFill=1;" parent="1" source="v6EGtla5pU5QmYVnP1JU-23" target="74Rbqkr3RGKhppeuQ6-u-31" edge="1">
          <mxGeometry relative="1" as="geometry">
            <Array as="points">
              <mxPoint x="200" y="535" />
              <mxPoint x="200" y="562" />
            </Array>
          </mxGeometry>
        </mxCell>
        <mxCell id="I3dUeAFyoRqeHVhiFnvn-33" style="edgeStyle=orthogonalEdgeStyle;rounded=0;orthogonalLoop=1;jettySize=auto;html=1;exitX=1;exitY=0.5;exitDx=0;exitDy=0;entryX=0;entryY=0.75;entryDx=0;entryDy=0;" parent="1" source="v6EGtla5pU5QmYVnP1JU-23" target="I3dUeAFyoRqeHVhiFnvn-25" edge="1">
          <mxGeometry relative="1" as="geometry">
            <Array as="points">
              <mxPoint x="200" y="535" />
              <mxPoint x="200" y="503" />
            </Array>
          </mxGeometry>
        </mxCell>
        <mxCell id="v6EGtla5pU5QmYVnP1JU-23" value="&lt;span style=&quot;color: rgb(0, 0, 0); font-family: Helvetica; font-size: 12px; font-style: normal; font-variant-ligatures: normal; font-variant-caps: normal; font-weight: 400; letter-spacing: normal; orphans: 2; text-align: center; text-indent: 0px; text-transform: none; widows: 2; word-spacing: 0px; -webkit-text-stroke-width: 0px; white-space: normal; background-color: rgb(251, 251, 251); text-decoration-thickness: initial; text-decoration-style: initial; text-decoration-color: initial; display: inline !important; float: none;&quot;&gt;Program/&lt;/span&gt;&lt;div style=&quot;forced-color-adjust: none; color: rgb(0, 0, 0); font-family: Helvetica; font-size: 12px; font-style: normal; font-variant-ligatures: normal; font-variant-caps: normal; font-weight: 400; letter-spacing: normal; orphans: 2; text-align: center; text-indent: 0px; text-transform: none; widows: 2; word-spacing: 0px; -webkit-text-stroke-width: 0px; white-space: normal; background-color: rgb(251, 251, 251); text-decoration-thickness: initial; text-decoration-style: initial; text-decoration-color: initial;&quot;&gt;Unit Test&lt;/div&gt;" style="text;whiteSpace=wrap;html=1;" parent="1" vertex="1">
          <mxGeometry x="132" y="515" width="56" height="40" as="geometry" />
        </mxCell>
        <mxCell id="v6EGtla5pU5QmYVnP1JU-26" value="ReplayAndControll" style="text;html=1;align=left;verticalAlign=middle;whiteSpace=wrap;rounded=0;" parent="1" vertex="1">
          <mxGeometry x="225" y="525" width="115" height="10" as="geometry" />
        </mxCell>
        <mxCell id="I3dUeAFyoRqeHVhiFnvn-3" value="Schedules" style="text;html=1;align=center;verticalAlign=middle;whiteSpace=wrap;rounded=0;" parent="1" vertex="1">
          <mxGeometry x="303.81" y="645" width="60" height="15" as="geometry" />
        </mxCell>
        <mxCell id="I3dUeAFyoRqeHVhiFnvn-4" style="edgeStyle=orthogonalEdgeStyle;rounded=0;orthogonalLoop=1;jettySize=auto;html=1;exitX=0;exitY=0.5;exitDx=0;exitDy=0;entryX=1;entryY=0.501;entryDx=0;entryDy=0;entryPerimeter=0;endArrow=classicThin;endFill=1;" parent="1" source="74Rbqkr3RGKhppeuQ6-u-21" target="v6EGtla5pU5QmYVnP1JU-21" edge="1">
          <mxGeometry relative="1" as="geometry" />
        </mxCell>
        <mxCell id="I3dUeAFyoRqeHVhiFnvn-21" value="GoCR" style="text;html=1;align=left;verticalAlign=middle;whiteSpace=wrap;rounded=0;" parent="1" vertex="1">
          <mxGeometry x="390" y="557" width="47.37" height="14" as="geometry" />
        </mxCell>
        <mxCell id="I3dUeAFyoRqeHVhiFnvn-23" style="edgeStyle=orthogonalEdgeStyle;rounded=0;orthogonalLoop=1;jettySize=auto;html=1;exitX=0.492;exitY=0.988;exitDx=0;exitDy=0;entryX=0.5;entryY=0;entryDx=0;entryDy=0;exitPerimeter=0;" parent="1" source="v6EGtla5pU5QmYVnP1JU-18" target="v6EGtla5pU5QmYVnP1JU-8" edge="1">
          <mxGeometry relative="1" as="geometry">
            <Array as="points">
              <mxPoint x="446" y="570" />
            </Array>
          </mxGeometry>
        </mxCell>
        <mxCell id="I3dUeAFyoRqeHVhiFnvn-25" value="" style="rounded=0;whiteSpace=wrap;html=1;" parent="1" vertex="1">
          <mxGeometry x="225" y="480" width="149" height="30" as="geometry" />
        </mxCell>
        <mxCell id="I3dUeAFyoRqeHVhiFnvn-29" value="Trace Recording" style="rounded=0;whiteSpace=wrap;html=1;" parent="1" vertex="1">
          <mxGeometry x="249.5" y="485" width="100" height="20" as="geometry" />
        </mxCell>
        <mxCell id="I3dUeAFyoRqeHVhiFnvn-31" value="Execution" style="text;html=1;align=left;verticalAlign=middle;whiteSpace=wrap;rounded=0;" parent="1" vertex="1">
          <mxGeometry x="225" y="470" width="60" height="10" as="geometry" />
        </mxCell>
        <mxCell id="I3dUeAFyoRqeHVhiFnvn-36" style="edgeStyle=orthogonalEdgeStyle;rounded=0;orthogonalLoop=1;jettySize=auto;html=1;exitX=1;exitY=0.5;exitDx=0;exitDy=0;" parent="1" source="I3dUeAFyoRqeHVhiFnvn-35" edge="1">
          <mxGeometry relative="1" as="geometry">
            <mxPoint x="224.27777777777783" y="485.33333333333326" as="targetPoint" />
          </mxGeometry>
        </mxCell>
        <mxCell id="I3dUeAFyoRqeHVhiFnvn-35" value="Start" style="text;html=1;align=center;verticalAlign=middle;whiteSpace=wrap;rounded=0;" parent="1" vertex="1">
          <mxGeometry x="145" y="470" width="30" height="30" as="geometry" />
        </mxCell>
        <mxCell id="I3dUeAFyoRqeHVhiFnvn-37" style="edgeStyle=orthogonalEdgeStyle;rounded=0;orthogonalLoop=1;jettySize=auto;html=1;exitX=0.973;exitY=0.719;exitDx=0;exitDy=0;entryX=0.5;entryY=0;entryDx=0;entryDy=0;exitPerimeter=0;" parent="1" source="v6EGtla5pU5QmYVnP1JU-18" target="74Rbqkr3RGKhppeuQ6-u-19" edge="1">
          <mxGeometry relative="1" as="geometry">
            <Array as="points">
              <mxPoint x="520" y="541" />
            </Array>
          </mxGeometry>
        </mxCell>
        <mxCell id="I3dUeAFyoRqeHVhiFnvn-42" value="Patched Go Runtime" style="text;html=1;align=left;verticalAlign=middle;whiteSpace=wrap;rounded=0;" parent="1" vertex="1">
          <mxGeometry x="210" y="454" width="120" height="10" as="geometry" />
        </mxCell>
        <mxCell id="v6EGtla5pU5QmYVnP1JU-18" value="" style="image;aspect=fixed;html=1;points=[];align=center;fontSize=12;image=img/lib/azure2/general/File.svg;" parent="1" vertex="1">
          <mxGeometry x="432" y="515" width="30" height="36" as="geometry" />
        </mxCell>
        <mxCell id="I3dUeAFyoRqeHVhiFnvn-43" style="edgeStyle=orthogonalEdgeStyle;rounded=0;orthogonalLoop=1;jettySize=auto;html=1;exitX=1;exitY=0.5;exitDx=0;exitDy=0;entryX=0.005;entryY=0.289;entryDx=0;entryDy=0;entryPerimeter=0;" parent="1" source="I3dUeAFyoRqeHVhiFnvn-29" target="v6EGtla5pU5QmYVnP1JU-18" edge="1">
          <mxGeometry relative="1" as="geometry" />
        </mxCell>
        <mxCell id="I3dUeAFyoRqeHVhiFnvn-44" style="edgeStyle=orthogonalEdgeStyle;rounded=0;orthogonalLoop=1;jettySize=auto;html=1;exitX=1;exitY=0.5;exitDx=0;exitDy=0;entryX=0.002;entryY=0.696;entryDx=0;entryDy=0;entryPerimeter=0;" parent="1" source="74Rbqkr3RGKhppeuQ6-u-17" target="v6EGtla5pU5QmYVnP1JU-18" edge="1">
          <mxGeometry relative="1" as="geometry" />
        </mxCell>
        <mxCell id="I3dUeAFyoRqeHVhiFnvn-5" value="" style="endArrow=none;html=1;rounded=0;dashed=1;" parent="1" edge="1">
          <mxGeometry width="50" height="50" relative="1" as="geometry">
            <mxPoint x="410" y="568" as="sourcePoint" />
            <mxPoint x="560" y="583" as="targetPoint" />
            <Array as="points">
              <mxPoint x="560" y="568" />
            </Array>
          </mxGeometry>
        </mxCell>
        <mxCell id="I3dUeAFyoRqeHVhiFnvn-6" value="" style="endArrow=none;html=1;rounded=0;dashed=1;" parent="1" edge="1">
          <mxGeometry width="50" height="50" relative="1" as="geometry">
            <mxPoint x="390" y="613" as="sourcePoint" />
            <mxPoint x="410" y="568" as="targetPoint" />
            <Array as="points">
              <mxPoint x="390" y="568" />
            </Array>
          </mxGeometry>
        </mxCell>
        <mxCell id="I3dUeAFyoRqeHVhiFnvn-7" value="" style="endArrow=none;html=1;rounded=0;dashed=1;" parent="1" edge="1">
          <mxGeometry width="50" height="50" relative="1" as="geometry">
            <mxPoint x="390" y="613" as="sourcePoint" />
            <mxPoint x="500" y="633" as="targetPoint" />
            <Array as="points">
              <mxPoint x="390" y="643" />
              <mxPoint x="500" y="643" />
            </Array>
          </mxGeometry>
        </mxCell>
        <mxCell id="I3dUeAFyoRqeHVhiFnvn-16" value="" style="endArrow=none;html=1;rounded=0;dashed=1;" parent="1" edge="1">
          <mxGeometry width="50" height="50" relative="1" as="geometry">
            <mxPoint x="500" y="633" as="sourcePoint" />
            <mxPoint x="540" y="610" as="targetPoint" />
            <Array as="points">
              <mxPoint x="500" y="610" />
            </Array>
          </mxGeometry>
        </mxCell>
        <mxCell id="74Rbqkr3RGKhppeuQ6-u-19" value="IsBuggy" style="rounded=0;whiteSpace=wrap;html=1;" parent="1" vertex="1">
          <mxGeometry x="490" y="578" width="60" height="20" as="geometry" />
        </mxCell>
        <mxCell id="v6EGtla5pU5QmYVnP1JU-17" value="" style="image;aspect=fixed;html=1;points=[];align=center;fontSize=12;image=img/lib/azure2/general/Bug.svg;" parent="1" vertex="1">
          <mxGeometry x="510" y="623" width="20" height="21.69" as="geometry" />
        </mxCell>
        <mxCell id="I3dUeAFyoRqeHVhiFnvn-1" style="edgeStyle=orthogonalEdgeStyle;rounded=0;orthogonalLoop=1;jettySize=auto;html=1;endArrow=classicThin;endFill=1;entryX=0.504;entryY=-0.051;entryDx=0;entryDy=0;entryPerimeter=0;" parent="1" source="74Rbqkr3RGKhppeuQ6-u-19" target="v6EGtla5pU5QmYVnP1JU-17" edge="1">
          <mxGeometry relative="1" as="geometry">
            <mxPoint x="530" y="623" as="targetPoint" />
          </mxGeometry>
        </mxCell>
        <mxCell id="v6EGtla5pU5QmYVnP1JU-8" value="IsInteresting" style="rounded=0;whiteSpace=wrap;html=1;" parent="1" vertex="1">
          <mxGeometry x="408" y="578" width="76" height="20" as="geometry" />
        </mxCell>
        <mxCell id="74Rbqkr3RGKhppeuQ6-u-21" value="MutateSchedule" style="rounded=0;whiteSpace=wrap;html=1;" parent="1" vertex="1">
          <mxGeometry x="398" y="616" width="96" height="20" as="geometry" />
        </mxCell>
        <mxCell id="I3dUeAFyoRqeHVhiFnvn-40" style="edgeStyle=orthogonalEdgeStyle;rounded=0;orthogonalLoop=1;jettySize=auto;html=1;exitX=0.5;exitY=1;exitDx=0;exitDy=0;entryX=0.5;entryY=0;entryDx=0;entryDy=0;" parent="1" source="v6EGtla5pU5QmYVnP1JU-8" target="74Rbqkr3RGKhppeuQ6-u-21" edge="1">
          <mxGeometry relative="1" as="geometry" />
        </mxCell>
        <mxCell id="I3dUeAFyoRqeHVhiFnvn-47" value="" style="endArrow=none;html=1;rounded=0;dashed=1;" parent="1" edge="1">
          <mxGeometry width="50" height="50" relative="1" as="geometry">
            <mxPoint x="543" y="610" as="sourcePoint" />
            <mxPoint x="560" y="583" as="targetPoint" />
            <Array as="points">
              <mxPoint x="560" y="610" />
            </Array>
          </mxGeometry>
        </mxCell>
      </root>
    </mxGraphModel>
  </diagram>
</mxfile>
